# xmcd
#
# Track frame offsets:
#	150
#	38625
#	63150
#	88125
#	129300
#
# Disc length: 1851 seconds
#
# Revision: 1
# Processed by: cddbd v1.5.1PL0 Copyright (c) Steve Scherf et al.
# Submitted via: CDex 1.50Beta5
#
DISCID=37073905
DTITLE=Wolfgang Amadeus Mozart (1756 - 1791) - アマデウスの魔法の音　免疫力
DYEAR=2003
DGENRE=Classical
TTITLE0=ヴァイオリン協奏曲第３番ト長調
TTITLE1=ヴァイオリン協奏曲第２番ニ長調
TTITLE2=ヴァイオリンソナタ第３２番ヘ長調
TTITLE3=弦楽五重奏曲第３番ハ長調
TTITLE4=ディヴェルティメント変ロ長調
EXTD=
EXTT0=
EXTT1=
EXTT2=
EXTT3=
EXTT4=
PLAYORDER=
